<?xml version="1.0" standalone="no"?>
<!DOCTYPE svg PUBLIC "-//W3C//DTD SVG 20010904//EN"
 "http://www.w3.org/TR/2001/REC-SVG-20010904/DTD/svg10.dtd">
<svg version="1.0" xmlns="http://www.w3.org/2000/svg"
 width="143.000000pt" height="143.000000pt" viewBox="0 0 143.000000 143.000000"
 preserveAspectRatio="xMidYMid meet">
<metadata>
Created by potrace 1.11, written by Peter Selinger 2001-2013
</metadata>
<g transform="translate(0.000000,143.000000) scale(0.100000,-0.100000)"
fill="#000000" stroke="none">
<path d="M1176 1273 c20 -26 43 -64 51 -85 8 -21 20 -38 26 -38 6 0 8 -3 5 -6
-4 -3 4 -36 17 -72 38 -111 39 -140 2 -186 -18 -22 -50 -56 -71 -76 -22 -19
-44 -40 -50 -46 -6 -6 -30 -24 -53 -41 -23 -17 -40 -32 -38 -35 2 -2 -7 -5
-20 -6 -16 -1 -28 6 -36 21 -7 12 -11 24 -9 25 1 2 -17 32 -41 65 -43 61 -55
92 -38 103 5 3 9 13 9 23 0 15 9 17 68 15 37 -1 89 3 116 9 42 10 53 18 82 62
l34 50 -31 6 c-66 14 -191 -19 -229 -60 -31 -33 -52 -44 -110 -56 -50 -10 -63
-10 -80 2 -11 8 -20 11 -20 7 0 -3 -6 -1 -14 6 -30 24 -131 46 -207 45 -135
-3 -244 -41 -341 -117 l-51 -41 -19 27 c-24 31 -41 26 -28 -9 8 -22 7 -25 -14
-25 -31 0 -56 -10 -56 -22 0 -5 20 -8 45 -5 24 2 43 1 41 -2 -2 -3 -19 -33
-39 -66 -102 -170 -94 -380 18 -504 41 -45 136 -94 220 -113 62 -14 341 -17
398 -4 56 13 128 45 180 79 85 57 125 115 148 214 6 28 22 56 47 81 47 48 125
165 157 239 14 32 30 66 35 75 6 10 10 29 10 43 0 25 14 33 25 15 3 -5 8 -44
9 -85 2 -42 6 -78 10 -82 5 -6 8 5 5 23 0 4 4 10 11 14 6 4 12 13 13 21 2 8 7
21 12 29 5 8 10 20 12 25 1 6 4 19 7 30 2 11 9 40 15 65 13 55 14 141 2 172
-5 13 -10 28 -11 33 -8 32 -110 151 -110 129 0 -5 -4 -4 -8 2 -12 17 -82 67
-82 58 0 -4 -5 -3 -12 4 -7 7 -20 12 -30 12 -15 0 -11 -8 18 -47z"/>
</g>
</svg>
